HIERARCHY
ROOT Hips
{
	OFFSET 0.000000 8.830580 0.000000
	CHANNELS 6 Xposition Yposition Zposition Zrotation Yrotation Xrotation 
	JOINT Spine
	{
		OFFSET 0.000000 0.010000 0.000000
		CHANNELS 3 Zrotation Yrotation Xrotation
		JOINT Spine1
		{
			OFFSET 0.000000 2.459130 0.000000
			CHANNELS 3 Zrotation Yrotation Xrotation
			JOINT Neck
			{
				OFFSET 0.000000 2.484630 0.000000
				CHANNELS 3 Zrotation Yrotation Xrotation
				JOINT Head_virtual
				{
					OFFSET 0.000000 0.000000 0.000000
					CHANNELS 3 Zrotation Yrotation Xrotation
					JOINT Head
					{
						OFFSET 0.000000 0.927525 0.000000
						CHANNELS 3 Zrotation Yrotation Xrotation
						End Site
						{
							OFFSET 0.000000 0.000000 0.000000
						}
					}
				}
				JOINT LeftUpArm_virtual
				{
					OFFSET 0.000000 0.000000 0.000000
					CHANNELS 3 Zrotation Yrotation Xrotation
					JOINT LeftUpArm
					{
						OFFSET 1.248820 0.000000 0.000000
						CHANNELS 3 Zrotation Yrotation Xrotation
						JOINT LeftForeArm
						{
							OFFSET 2.597580 0.000000 0.000000
							CHANNELS 3 Zrotation Yrotation Xrotation
							JOINT LeftHand
							{
								OFFSET 2.455420 0.000000 0.000000
								CHANNELS 3 Zrotation Yrotation Xrotation
								End Site
								{
									OFFSET 0.000000 0.000000 0.000000
								}
							}
						}
					}
				}
				JOINT RightUpArm_virtual
				{
					OFFSET -0.000000 -0.000000 -0.000000
					CHANNELS 3 Zrotation Yrotation Xrotation
					JOINT RightUpArm
					{
						OFFSET -1.248820 -0.000000 -0.000000
						CHANNELS 3 Zrotation Yrotation Xrotation
						JOINT RightForeArm
						{
							OFFSET -2.597580 -0.000000 -0.000000
							CHANNELS 3 Zrotation Yrotation Xrotation
							JOINT RightHand
							{
								OFFSET -2.455420 -0.000000 -0.000000
								CHANNELS 3 Zrotation Yrotation Xrotation
								End Site
								{
									OFFSET 0.000000 0.000000 0.000000
								}
							}
						}
					}
				}
			}
		}
	}
	JOINT LeftUpLeg
	{
		OFFSET 1.271939 0.000000 0.000000
		CHANNELS 3 Zrotation Yrotation Xrotation
		JOINT LeftLowLeg
		{
			OFFSET 0.000000 -4.342910 0.000000
			CHANNELS 3 Zrotation Yrotation Xrotation
			JOINT LeftFoot
			{
				OFFSET 0.000000 -4.487670 0.000000
				CHANNELS 3 Zrotation Yrotation Xrotation
				JOINT LeftToeBase
				{
					OFFSET 0.000000 0.000000 1.515070
					CHANNELS 3 Zrotation Yrotation Xrotation
					End Site
					{
						OFFSET 0.000000 0.000000 0.000000
					}
				}
			}
		}
	}
	JOINT RightUpLeg
	{
		OFFSET -1.271939 0.000000 0.000000
		CHANNELS 3 Zrotation Yrotation Xrotation
		JOINT RightLowLeg
		{
			OFFSET 0.000000 -4.342910 0.000000
			CHANNELS 3 Zrotation Yrotation Xrotation
			JOINT RightFoot
			{
				OFFSET 0.000000 -4.487670 0.000000
				CHANNELS 3 Zrotation Yrotation Xrotation
				JOINT RightToeBase
				{
					OFFSET 0.000000 0.000000 1.515070
					CHANNELS 3 Zrotation Yrotation Xrotation
					End Site
					{
						OFFSET 0.000000 0.000000 0.000000
					}
				}
			}
		}
	}
}
MOTION
Frames: 8
Frame Time: 0.041667
-18.434930 9.156605 42.122390 -174.398221 7.710604 -173.187343 2.536972 0.402821 -6.090091 5.432341 0.915497 -12.266390 0.000000 0.000000 0.000000 -18.858749 8.579386 24.410924 8.212174 21.684790 -82.862268 -24.216499 7.859640 -11.175900 13.307500 -14.512100 -26.173901 0.000000 -4.577220 0.000000 25.410801 11.022500 34.499298 18.277599 -4.644150 -11.914600 -9.420000 8.444050 -46.188999 0.000000 16.219299 0.000000 -32.273300 -15.574400 58.210701 6.613496 -1.411700 -5.913891 0.000000 0.000000 5.844870 -17.339035 11.567667 1.034004 0.000000 0.000000 -30.809100 5.394962 0.933090 -6.021282 0.000000 0.000000 8.028430 12.331060 -16.381489 6.427330 0.000000 0.000000 -36.884199 
-18.432063 9.156182 42.115509 -174.396607 7.850760 -173.117608 2.517936 0.471165 -6.252792 5.395466 0.988733 -12.272156 0.000000 0.000000 0.000000 -19.512974 10.288037 23.909378 7.815967 21.910739 -83.130103 -24.181000 7.919570 -11.370000 13.715500 -14.606000 -26.393900 0.000000 -4.569100 0.000000 25.399900 11.065200 34.798901 18.360600 -4.665390 -11.907500 -9.613390 8.481810 -46.402401 0.000000 16.212999 0.000000 -32.230801 -15.318400 58.510300 6.609842 -1.320533 -5.877687 0.000000 0.000000 5.796950 -17.351768 11.620751 0.978560 0.000000 0.000000 -30.758800 5.393858 1.047114 -6.025570 0.000000 0.000000 7.981250 12.315681 -16.361233 6.416337 0.000000 0.000000 -36.875500 
-18.428864 9.156070 42.108320 -174.386030 7.980906 -173.007883 2.527229 0.553736 -6.449123 5.300526 1.072000 -12.256878 0.000000 0.000000 0.000000 -20.067842 11.675360 23.454204 7.449914 22.091033 -83.410699 -24.154600 8.019260 -11.539300 14.237900 -14.729200 -26.678301 0.000000 -4.544400 0.000000 25.390900 11.137200 35.103500 18.457399 -4.779980 -11.971300 -9.766650 8.491280 -46.525299 0.000000 16.250401 0.000000 -32.184200 -15.148900 58.790001 6.621925 -1.266916 -5.877762 0.000000 0.000000 5.750890 -17.393511 11.689060 0.912015 0.000000 0.000000 -30.716400 5.402553 1.172457 -6.067465 0.000000 0.000000 7.936910 12.306848 -16.366851 6.411517 0.000000 0.000000 -36.823700 
-18.425770 9.156019 42.101641 -174.381376 8.077109 -172.891629 2.520860 0.630904 -6.603842 5.199752 1.157209 -12.318152 0.000000 0.000000 0.000000 -20.537183 12.798790 23.076425 7.264449 22.205274 -83.597633 -24.127800 8.098940 -11.697100 14.832600 -14.765800 -26.680099 0.000000 -4.572400 0.000000 25.240400 11.378600 35.012299 18.575701 -4.918670 -12.019800 -10.019000 8.393310 -46.029701 0.000000 16.192600 0.000000 -32.165501 -15.178200 58.316399 6.631289 -1.233007 -5.899541 0.000000 0.000000 5.706360 -17.429732 11.751414 0.859517 0.000000 0.000000 -30.683800 5.409125 1.245192 -6.108298 0.000000 0.000000 7.871420 12.280135 -16.352121 6.424857 0.000000 0.000000 -36.803801 
-18.421792 9.155960 42.094022 -174.382267 8.124537 -172.799763 2.463227 0.677172 -6.779736 5.178487 1.214269 -12.313108 0.000000 0.000000 0.000000 -20.895470 13.551273 22.802728 7.055562 22.245318 -83.766183 -24.129801 8.193420 -11.970300 15.448100 -14.844500 -26.542801 0.000000 -4.506120 0.000000 25.202101 11.490300 34.990299 18.674700 -5.032500 -12.046000 -10.299200 8.239440 -45.942600 0.000000 16.187000 0.000000 -32.009998 -15.292800 58.615002 6.644179 -1.203439 -5.897405 0.000000 0.000000 5.655010 -17.449717 11.766613 0.825651 0.000000 0.000000 -30.656100 5.419444 1.288626 -6.112011 0.000000 0.000000 7.798790 12.286477 -16.351102 6.409298 0.000000 0.000000 -36.782499 
-18.418767 9.155931 42.087721 -174.384037 8.184603 -172.696609 2.424035 0.741789 -6.897801 5.127718 1.292074 -12.389300 0.000000 0.000000 0.000000 -21.194441 14.139802 22.584845 6.965563 22.245119 -83.876660 -24.124599 8.287540 -12.187800 16.084999 -14.869800 -26.504499 0.000000 -4.508930 0.000000 25.283400 11.559700 35.119801 18.756300 -5.182000 -12.174200 -10.541100 8.130260 -45.894501 0.000000 16.160700 0.000000 -32.090698 -15.471600 59.058998 6.649098 -1.147889 -5.923883 0.000000 0.000000 5.620070 -17.478453 11.773492 0.797070 0.000000 0.000000 -30.619900 5.421923 1.322471 -6.148794 0.000000 0.000000 7.750100 12.300150 -16.320699 6.401562 0.000000 0.000000 -36.735100 
-18.416061 9.156068 42.081215 -174.386104 8.156798 -172.622211 2.409566 0.745338 -6.999315 5.048739 1.304065 -12.446576 0.000000 0.000000 0.000000 -21.408597 14.504064 22.430360 7.020318 22.192996 -83.927661 -24.134100 8.447300 -12.387500 16.788099 -14.924700 -26.561501 0.000000 -4.496250 0.000000 25.406401 11.602800 35.137901 18.867001 -5.323400 -12.238400 -10.774400 8.005150 -46.088501 0.000000 16.113800 0.000000 -32.147900 -15.332700 59.316700 6.655944 -1.144927 -5.956203 0.000000 0.000000 5.605270 -17.470765 11.778801 0.793715 0.000000 0.000000 -30.624400 5.435335 1.271165 -6.157871 0.000000 0.000000 7.709060 12.291032 -16.304602 6.394342 0.000000 0.000000 -36.709801 
-18.412980 9.156324 42.074010 -174.373127 8.237807 -172.488203 2.398898 0.801232 -7.154693 4.973322 1.368348 -12.516927 0.000000 0.000000 0.000000 -21.526181 14.662733 22.422228 7.010433 22.177153 -84.050440 -24.158001 8.641710 -12.667400 17.469601 -14.987500 -26.620800 0.000000 -4.571590 0.000000 25.595699 11.716800 35.126099 18.952299 -5.481350 -12.329800 -10.988000 7.906770 -46.051201 0.000000 16.012800 0.000000 -32.410900 -15.306200 59.328800 6.665195 -0.977698 -5.983754 0.000000 0.000000 5.538000 -17.489541 11.715314 0.791183 0.000000 0.000000 -30.606600 5.448700 1.399574 -6.235348 0.000000 0.000000 7.689370 12.268223 -16.351783 6.393430 0.000000 0.000000 -36.695999 
